{
    "asset" : {
        "generator" : "Khronos glTF Blender I/O v1.8.19",
        "version" : "2.0"
    },
    "scene" : 0,
    "scenes" : [
        {
            "name" : "Scene",
            "nodes" : [
                0
            ]
        }
    ],
    "nodes" : [
        {
            "mesh" : 0,
            "name" : "\u6307\u793a\u724c01"
        }
    ],
    "materials" : [
        {
            "doubleSided" : true,
            "name" : "Mat3d66-1270083-93-6893",
            "pbrMetallicRoughness" : {
                "baseColorFactor" : [
                    0.6588240265846252,
                    0.6588240265846252,
                    0.6588240265846252,
                    1
                ],
                "metallicFactor" : 0,
                "roughnessFactor" : 0.7204724550247192
            }
        },
        {
            "doubleSided" : true,
            "name" : "Mat3d66-1270083-7-3375",
            "pbrMetallicRoughness" : {
                "baseColorFactor" : [
                    0.9843140244483948,
                    0.9843140244483948,
                    0.09803900122642517,
                    1
                ],
                "metallicFactor" : 0,
                "roughnessFactor" : 0.7283464670181274
            }
        },
        {
            "doubleSided" : true,
            "name" : "Mat3d66-1270083-70-8170",
            "pbrMetallicRoughness" : {
                "baseColorFactor" : [
                    0.4352940022945404,
                    0,
                    0,
                    1
                ],
                "metallicFactor" : 0,
                "roughnessFactor" : 0.7283464670181274
            }
        }
    ],
    "meshes" : [
        {
            "name" : "Obj3d66-1270083-47-100",
            "primitives" : [
                {
                    "attributes" : {
                        "POSITION" : 0,
                        "NORMAL" : 1,
                        "TEXCOORD_0" : 2
                    },
                    "indices" : 3,
                    "material" : 0
                },
                {
                    "attributes" : {
                        "POSITION" : 4,
                        "NORMAL" : 5,
                        "TEXCOORD_0" : 6
                    },
                    "indices" : 7,
                    "material" : 1
                },
                {
                    "attributes" : {
                        "POSITION" : 8,
                        "NORMAL" : 9,
                        "TEXCOORD_0" : 10
                    },
                    "indices" : 11,
                    "material" : 2
                }
            ]
        }
    ],
    "accessors" : [
        {
            "bufferView" : 0,
            "componentType" : 5126,
            "count" : 2809,
            "max" : [
                0.9816360473632812,
                6.24421501159668,
                0.5887622833251953
            ],
            "min" : [
                -0.9338951110839844,
                5.841255187988281e-06,
                -0.6094455718994141
            ],
            "type" : "VEC3"
        },
        {
            "bufferView" : 1,
            "componentType" : 5126,
            "count" : 2809,
            "type" : "VEC3"
        },
        {
            "bufferView" : 2,
            "componentType" : 5126,
            "count" : 2809,
            "type" : "VEC2"
        },
        {
            "bufferView" : 3,
            "componentType" : 5123,
            "count" : 4557,
            "type" : "SCALAR"
        },
        {
            "bufferView" : 4,
            "componentType" : 5126,
            "count" : 20,
            "max" : [
                0.045352935791015625,
                5.023777008056641,
                0.2807579040527344
            ],
            "min" : [
                -0.0469512939453125,
                2.492269992828369,
                0.20198631286621094
            ],
            "type" : "VEC3"
        },
        {
            "bufferView" : 5,
            "componentType" : 5126,
            "count" : 20,
            "type" : "VEC3"
        },
        {
            "bufferView" : 6,
            "componentType" : 5126,
            "count" : 20,
            "type" : "VEC2"
        },
        {
            "bufferView" : 7,
            "componentType" : 5123,
            "count" : 30,
            "type" : "SCALAR"
        },
        {
            "bufferView" : 8,
            "componentType" : 5126,
            "count" : 4672,
            "max" : [
                0.9816398620605469,
                5.939960479736328,
                0.6094474792480469
            ],
            "min" : [
                -0.9816436767578125,
                1.1920928955078125e-07,
                -0.6094455718994141
            ],
            "type" : "VEC3"
        },
        {
            "bufferView" : 9,
            "componentType" : 5126,
            "count" : 4672,
            "type" : "VEC3"
        },
        {
            "bufferView" : 10,
            "componentType" : 5126,
            "count" : 4672,
            "type" : "VEC2"
        },
        {
            "bufferView" : 11,
            "componentType" : 5123,
            "count" : 9084,
            "type" : "SCALAR"
        }
    ],
    "bufferViews" : [
        {
            "buffer" : 0,
            "byteLength" : 33708,
            "byteOffset" : 0
        },
        {
            "buffer" : 0,
            "byteLength" : 33708,
            "byteOffset" : 33708
        },
        {
            "buffer" : 0,
            "byteLength" : 22472,
            "byteOffset" : 67416
        },
        {
            "buffer" : 0,
            "byteLength" : 9114,
            "byteOffset" : 89888
        },
        {
            "buffer" : 0,
            "byteLength" : 240,
            "byteOffset" : 99004
        },
        {
            "buffer" : 0,
            "byteLength" : 240,
            "byteOffset" : 99244
        },
        {
            "buffer" : 0,
            "byteLength" : 160,
            "byteOffset" : 99484
        },
        {
            "buffer" : 0,
            "byteLength" : 60,
            "byteOffset" : 99644
        },
        {
            "buffer" : 0,
            "byteLength" : 56064,
            "byteOffset" : 99704
        },
        {
            "buffer" : 0,
            "byteLength" : 56064,
            "byteOffset" : 155768
        },
        {
            "buffer" : 0,
            "byteLength" : 37376,
            "byteOffset" : 211832
        },
        {
            "buffer" : 0,
            "byteLength" : 18168,
            "byteOffset" : 249208
        }
    ],
    "buffers" : [
        {
            "byteLength" : 267376,
            "uri" : "data:application/octet-stream;base64,"
        }
    ]
}
