{
    "asset": {
        "generator": "FBX2glTF v0.9.7",
        "version": "2.0"
    },
    "scene": 0,
    "extensionsUsed": [
        "KHR_lights_punctual"
    ],
    "buffers": [
        {
            "byteLength": 487864,
            "uri": "buffer.bin"
        }
    ],
    "bufferViews": [
        {
            "buffer": 0,
            "byteLength": 75702,
            "byteOffset": 0,
            "target": 34963
        },
        {
            "buffer": 0,
            "byteLength": 154560,
            "byteOffset": 75704,
            "target": 34962
        },
        {
            "buffer": 0,
            "byteLength": 154560,
            "byteOffset": 230264,
            "target": 34962
        },
        {
            "buffer": 0,
            "byteLength": 103040,
            "byteOffset": 384824,
            "target": 34962
        }
    ],
    "scenes": [
        {
            "name": "Root Scene",
            "nodes": [
                0
            ]
        }
    ],
    "accessors": [
        {
            "componentType": 5123,
            "type": "SCALAR",
            "count": 37851,
            "bufferView": 0,
            "byteOffset": 0
        },
        {
            "componentType": 5126,
            "type": "VEC3",
            "count": 12880,
            "bufferView": 1,
            "byteOffset": 0,
            "min": [
                -7.23665046691895,
                -6.88685274124146,
                -7.90690231323242
            ],
            "max": [
                3.26833081245422,
                7.91252279281616,
                7.89587545394897
            ]
        },
        {
            "componentType": 5126,
            "type": "VEC3",
            "count": 12880,
            "bufferView": 2,
            "byteOffset": 0
        },
        {
            "componentType": 5126,
            "type": "VEC2",
            "count": 12880,
            "bufferView": 3,
            "byteOffset": 0
        }
    ],
    "images": [
        {
            "name": "T_Drone_005_N.jpg",
            "uri": "T_Drone_005_N.jpg"
        },
        {
            "name": "T_Drone_005_C_AO.jpg",
            "uri": "T_Drone_005_C_AO.jpg"
        }
    ],
    "samplers": [
        {}
    ],
    "textures": [
        {
            "name": "T_Drone_005_N",
            "sampler": 0,
            "source": 0
        },
        {
            "name": "T_Drone_005_C_AO",
            "sampler": 0,
            "source": 1
        }
    ],
    "materials": [
        {
            "name": "MI_Drone_005",
            "alphaMode": "OPAQUE",
            "extras": {
                "fromFBX": {
                    "shadingModel": "Phong",
                    "isTruePBR": false
                }
            },
            "normalTexture": {
                "index": 0,
                "texCoord": 0
            },
            "pbrMetallicRoughness": {
                "baseColorTexture": {
                    "index": 1,
                    "texCoord": 0
                },
                "baseColorFactor": [
                    1.0,
                    1.0,
                    1.0,
                    1.0
                ],
                "metallicFactor": 0.400000005960464,
                "roughnessFactor": 0.242535620927811
            }
        }
    ],
    "meshes": [
        {
            "name": "SK_Drone_005",
            "primitives": [
                {
                    "material": 0,
                    "mode": 4,
                    "attributes": {
                        "NORMAL": 2,
                        "POSITION": 1,
                        "TEXCOORD_0": 3
                    },
                    "indices": 0
                }
            ]
        }
    ],
    "cameras": [
        {
            "name": "",
            "type": "perspective",
            "perspective": {
                "znear": 0.00100000004749745,
                "zfar": 10000.0,
                "aspectRatio": 1.33333337306976,
                "yfov": 0.527423679828644
            }
        },
        {
            "name": "",
            "type": "perspective",
            "perspective": {
                "znear": 0.00100000004749745,
                "zfar": 10000.0,
                "aspectRatio": 1.33333337306976,
                "yfov": 0.527423679828644
            }
        },
        {
            "name": "",
            "type": "perspective",
            "perspective": {
                "znear": 0.00100000004749745,
                "zfar": 10000.0,
                "aspectRatio": 1.33333337306976,
                "yfov": 0.527423679828644
            }
        }
    ],
    "nodes": [
        {
            "name": "RootNode",
            "translation": [
                0.0,
                0.0,
                0.0
            ],
            "rotation": [
                0.0,
                0.0,
                0.0,
                1.0
            ],
            "scale": [
                1.0,
                1.0,
                1.0
            ],
            "children": [
                1,
                2,
                3,
                4,
                13,
                22,
                31,
                34
            ]
        },
        {
            "name": "摄像机_2",
            "translation": [
                22.0075798034668,
                -17.3635501861572,
                -14.5784978866577
            ],
            "rotation": [
                0.134458586573601,
                0.837954163551331,
                -0.238716378808022,
                0.471983283758163
            ],
            "scale": [
                1.0,
                1.0,
                1.0
            ],
            "camera": 0
        },
        {
            "name": "摄像机_1",
            "translation": [
                -26.6891498565674,
                9.32382965087891,
                -22.6742210388184
            ],
            "rotation": [
                -0.0510690920054913,
                -0.914603710174561,
                -0.12226402759552,
                0.382025510072708
            ],
            "scale": [
                1.0,
                1.0,
                1.0
            ],
            "camera": 1
        },
        {
            "name": "摄像机",
            "translation": [
                23.1575317382813,
                10.9405479431152,
                -21.2249965667725
            ],
            "rotation": [
                -0.0712272301316261,
                0.891906976699829,
                0.151183545589447,
                0.420204907655716
            ],
            "scale": [
                1.0,
                1.0,
                1.0
            ],
            "camera": 2
        },
        {
            "name": "物理天空_1",
            "translation": [
                0.0,
                0.0,
                0.0
            ],
            "rotation": [
                -0.171759784221649,
                -0.0255394745618105,
                0.974098145961761,
                -0.144841551780701
            ],
            "scale": [
                1.0,
                1.0,
                1.0
            ],
            "children": [
                5,
                11,
                12
            ]
        },
        {
            "name": "空白天空",
            "translation": [
                -10.052225112915,
                23.0155296325684,
                -19.1728248596191
            ],
            "rotation": [
                1.80755209670067e-17,
                5.55111512312578e-17,
                -1.91892071652461e-17,
                1.0
            ],
            "scale": [
                1.0,
                1.0,
                1.0
            ],
            "children": [
                6,
                9
            ]
        },
        {
            "name": "太阳",
            "translation": [
                380.758575439453,
                1140.4462890625,
                902.993469238281
            ],
            "rotation": [
                -0.40901380777359,
                0.18011786043644,
                0.0827069357037544,
                0.890743970870972
            ],
            "scale": [
                1.0,
                1.0,
                1.0
            ],
            "children": [
                7,
                8
            ]
        },
        {
            "name": "镜头光晕源",
            "translation": [
                0.0,
                0.0,
                0.0
            ],
            "rotation": [
                5.55111512312578e-17,
                -5.55111512312578e-17,
                2.77555756156289e-17,
                1.0
            ],
            "scale": [
                1.0,
                1.0,
                1.0
            ],
            "extensions": {
                "KHR_lights_punctual": {
                    "light": 0
                }
            }
        },
        {
            "name": "阳光",
            "translation": [
                0.0,
                0.0,
                0.0
            ],
            "rotation": [
                5.55111512312578e-17,
                -5.55111512312578e-17,
                2.77555756156289e-17,
                1.0
            ],
            "scale": [
                1.0,
                1.0,
                1.0
            ],
            "extensions": {
                "KHR_lights_punctual": {
                    "light": 1
                }
            }
        },
        {
            "name": "月亮",
            "translation": [
                25.1471843719482,
                27.5171718597412,
                10.146767616272
            ],
            "rotation": [
                -0.320011734962463,
                0.516014516353607,
                0.215956956148148,
                0.764646410942078
            ],
            "scale": [
                1.0,
                1.0,
                1.0
            ],
            "children": [
                10
            ]
        },
        {
            "name": "月光",
            "translation": [
                0.0,
                0.0,
                0.0
            ],
            "rotation": [
                9.21571846612679e-18,
                -1.59867231711831e-35,
                -1.73472347597681e-18,
                1.0
            ],
            "scale": [
                1.0,
                1.0,
                1.0
            ],
            "extensions": {
                "KHR_lights_punctual": {
                    "light": 1
                }
            }
        },
        {
            "name": "投影平面",
            "translation": [
                -1.00353465094056e-14,
                100.0,
                -1.92933035439967e-15
            ],
            "rotation": [
                1.80755209670067e-17,
                5.55111512312578e-17,
                -1.91892071652461e-17,
                1.0
            ],
            "scale": [
                1.0,
                1.0,
                1.0
            ]
        },
        {
            "name": "Sky_Dome",
            "translation": [
                0.0,
                0.0,
                0.0
            ],
            "rotation": [
                1.80755209670067e-17,
                5.55111512312578e-17,
                -1.91892071652461e-17,
                1.0
            ],
            "scale": [
                1.0,
                1.0,
                1.0
            ]
        },
        {
            "name": "物理天空_2",
            "translation": [
                0.0,
                0.0,
                0.0
            ],
            "rotation": [
                -4.18445766925402e-09,
                0.906307816505432,
                -8.97359875295933e-09,
                -0.422618269920349
            ],
            "scale": [
                1.0,
                1.0,
                1.0
            ],
            "children": [
                14,
                20,
                21
            ]
        },
        {
            "name": "空白天空_2",
            "translation": [
                -25.3139762878418,
                -17.3635501861572,
                -7.48790550231934
            ],
            "rotation": [
                -9.38133855360563e-17,
                5.55111512312578e-17,
                7.87187753425069e-17,
                1.0
            ],
            "scale": [
                1.0,
                1.0,
                1.0
            ],
            "children": [
                15,
                18
            ]
        },
        {
            "name": "太阳_2",
            "translation": [
                380.758575439453,
                1140.4462890625,
                902.993469238281
            ],
            "rotation": [
                -0.40901380777359,
                0.18011786043644,
                0.0827069357037544,
                0.890743970870972
            ],
            "scale": [
                1.0,
                1.0,
                1.0
            ],
            "children": [
                16,
                17
            ]
        },
        {
            "name": "镜头光晕源_2",
            "translation": [
                0.0,
                0.0,
                0.0
            ],
            "rotation": [
                -3.46944695195361e-18,
                2.77555756156289e-17,
                1.38777878078145e-17,
                1.0
            ],
            "scale": [
                1.0,
                1.0,
                1.0
            ],
            "extensions": {
                "KHR_lights_punctual": {
                    "light": 0
                }
            }
        },
        {
            "name": "阳光_2",
            "translation": [
                0.0,
                0.0,
                0.0
            ],
            "rotation": [
                -3.46944695195361e-18,
                2.77555756156289e-17,
                1.38777878078145e-17,
                1.0
            ],
            "scale": [
                1.0,
                1.0,
                1.0
            ],
            "extensions": {
                "KHR_lights_punctual": {
                    "light": 1
                }
            }
        },
        {
            "name": "月亮_2",
            "translation": [
                25.1471843719482,
                27.5171718597412,
                10.146767616272
            ],
            "rotation": [
                -0.320011734962463,
                0.516014516353607,
                0.215956956148148,
                0.764646410942078
            ],
            "scale": [
                1.0,
                1.0,
                1.0
            ],
            "children": [
                19
            ]
        },
        {
            "name": "月光_2",
            "translation": [
                0.0,
                0.0,
                0.0
            ],
            "rotation": [
                6.93889390390723e-17,
                0.0,
                0.0,
                1.0
            ],
            "scale": [
                1.0,
                1.0,
                1.0
            ],
            "extensions": {
                "KHR_lights_punctual": {
                    "light": 1
                }
            }
        },
        {
            "name": "投影平面_2",
            "translation": [
                -7.87187697838532e-15,
                100.0,
                1.10895001880873e-14
            ],
            "rotation": [
                -9.38133855360563e-17,
                5.55111512312578e-17,
                7.87187753425069e-17,
                1.0
            ],
            "scale": [
                1.0,
                1.0,
                1.0
            ]
        },
        {
            "name": "Sky_Dome_2",
            "translation": [
                0.0,
                0.0,
                0.0
            ],
            "rotation": [
                -9.38133855360563e-17,
                5.55111512312578e-17,
                7.87187753425069e-17,
                1.0
            ],
            "scale": [
                1.0,
                1.0,
                1.0
            ]
        },
        {
            "name": "物理天空",
            "translation": [
                0.0,
                0.0,
                0.0
            ],
            "rotation": [
                -6.45239195407044e-09,
                0.866025388240814,
                -3.72529007641731e-09,
                0.5
            ],
            "scale": [
                1.0,
                1.0,
                1.0
            ],
            "children": [
                23,
                29,
                30
            ]
        },
        {
            "name": "空白天空_3",
            "translation": [
                1.62155997753143,
                -17.3635501861572,
                26.3483715057373
            ],
            "rotation": [
                0.0,
                0.0,
                0.0,
                1.0
            ],
            "scale": [
                1.0,
                1.0,
                1.0
            ],
            "children": [
                24,
                27
            ]
        },
        {
            "name": "太阳_3",
            "translation": [
                380.758575439453,
                1140.4462890625,
                902.993469238281
            ],
            "rotation": [
                -0.40901380777359,
                0.18011786043644,
                0.0827069357037544,
                0.890743970870972
            ],
            "scale": [
                1.0,
                1.0,
                1.0
            ],
            "children": [
                25,
                26
            ]
        },
        {
            "name": "镜头光晕源_3",
            "translation": [
                0.0,
                0.0,
                0.0
            ],
            "rotation": [
                5.55111512312578e-17,
                5.55111512312578e-17,
                -3.08148791101958e-33,
                1.0
            ],
            "scale": [
                1.0,
                1.0,
                1.0
            ],
            "extensions": {
                "KHR_lights_punctual": {
                    "light": 0
                }
            }
        },
        {
            "name": "阳光_3",
            "translation": [
                0.0,
                0.0,
                0.0
            ],
            "rotation": [
                5.55111512312578e-17,
                5.55111512312578e-17,
                -3.08148791101958e-33,
                1.0
            ],
            "scale": [
                1.0,
                1.0,
                1.0
            ],
            "extensions": {
                "KHR_lights_punctual": {
                    "light": 1
                }
            }
        },
        {
            "name": "月亮_3",
            "translation": [
                25.1471843719482,
                27.5171718597412,
                10.146767616272
            ],
            "rotation": [
                -0.320011734962463,
                0.516014516353607,
                0.215956956148148,
                0.764646410942078
            ],
            "scale": [
                1.0,
                1.0,
                1.0
            ],
            "children": [
                28
            ]
        },
        {
            "name": "月光_3",
            "translation": [
                0.0,
                0.0,
                0.0
            ],
            "rotation": [
                0.0,
                -0.0,
                -1.38777878078145e-17,
                1.0
            ],
            "scale": [
                1.0,
                1.0,
                1.0
            ],
            "extensions": {
                "KHR_lights_punctual": {
                    "light": 1
                }
            }
        },
        {
            "name": "投影平面_3",
            "translation": [
                -6.12323209240391e-15,
                100.0,
                2.40726441737152e-14
            ],
            "rotation": [
                -4.13590306276514e-25,
                -0.0,
                0.0,
                1.0
            ],
            "scale": [
                1.0,
                1.0,
                1.0
            ]
        },
        {
            "name": "Sky_Dome_3",
            "translation": [
                0.0,
                0.0,
                0.0
            ],
            "rotation": [
                -4.13590306276514e-25,
                -0.0,
                0.0,
                1.0
            ],
            "scale": [
                1.0,
                1.0,
                1.0
            ]
        },
        {
            "name": "空白_1",
            "translation": [
                -3.89182186126709,
                -0.0594674684107304,
                0.0874294340610504
            ],
            "rotation": [
                0.70710676908493,
                -4.32978030171328e-17,
                0.70710676908493,
                4.32978030171328e-17
            ],
            "scale": [
                1.0,
                1.0,
                1.0
            ],
            "children": [
                32,
                33
            ]
        },
        {
            "name": "灯光_1",
            "translation": [
                0.0,
                0.0,
                0.0
            ],
            "rotation": [
                0.70710676908493,
                0.0,
                0.0,
                0.70710676908493
            ],
            "scale": [
                1.0,
                1.0,
                1.0
            ],
            "extensions": {
                "KHR_lights_punctual": {
                    "light": 2
                }
            }
        },
        {
            "name": "灯光",
            "translation": [
                -1.77635679969558e-17,
                -1.77635679969558e-17,
                -0.045052457600832
            ],
            "rotation": [
                0.70710676908493,
                0.0,
                0.0,
                0.70710676908493
            ],
            "scale": [
                1.0,
                1.0,
                1.0
            ],
            "extensions": {
                "KHR_lights_punctual": {
                    "light": 2
                }
            }
        },
        {
            "name": "SK_Drone_005",
            "translation": [
                0.0,
                0.0,
                0.0
            ],
            "rotation": [
                0.0,
                0.0,
                0.0,
                1.0
            ],
            "scale": [
                1.0,
                1.0,
                1.0
            ],
            "mesh": 0
        }
    ],
    "extensions": {
        "KHR_lights_punctual": {
            "lights": [
                {
                    "name": "",
                    "color": [
                        1.0,
                        1.0,
                        1.0
                    ],
                    "intensity": 1.0,
                    "type": "point"
                },
                {
                    "name": "",
                    "color": [
                        0.933891117572784,
                        0.851880550384521,
                        0.765131771564484
                    ],
                    "intensity": 1.0,
                    "type": "directional"
                },
                {
                    "name": "",
                    "color": [
                        1.0,
                        1.0,
                        1.0
                    ],
                    "intensity": 1.0,
                    "type": "spot",
                    "spot": {
                        "outerConeAngle": 0.523598790168762
                    }
                }
            ]
        }
    }
}